<svg width="856" height="90" viewBox="0 0 856 90" fill="none" xmlns="http://www.w3.org/2000/svg">
<path d="M52.0887 13.9532C52.0887 10.0302 55.2689 6.8501 59.1918 6.8501V6.8501C63.1147 6.8501 66.2949 10.0302 66.2949 13.9532V13.9532C66.2949 17.8761 63.1147 21.0562 59.1918 21.0562V21.0562C55.2689 21.0562 52.0887 17.8761 52.0887 13.9532V13.9532Z" fill="#FBFBFB"/>
<path d="M53.9836 46.1543C53.9836 42.2314 57.1638 39.0513 61.0867 39.0513V39.0513C65.0096 39.0513 68.1898 42.2314 68.1898 46.1543V46.1543C68.1898 50.0772 65.0096 53.2574 61.0867 53.2574V53.2574C57.1638 53.2574 53.9836 50.0772 53.9836 46.1543V46.1543Z" fill="#FBFBFB"/>
<path d="M71.9777 46.1543C71.9777 42.2314 75.1578 39.0513 79.0807 39.0513V39.0513C83.0036 39.0513 86.1838 42.2314 86.1838 46.1543V46.1543C86.1838 50.0772 83.0036 53.2574 79.0807 53.2574V53.2574C75.1578 53.2574 71.9777 50.0772 71.9777 46.1543V46.1543Z" fill="#FBFBFB"/>
<path d="M15.1537 46.1543C15.1537 42.2314 18.3338 39.0513 22.2567 39.0513V39.0513C26.1797 39.0513 29.3598 42.2314 29.3598 46.1543V46.1543C29.3598 50.0772 26.1797 53.2574 22.2567 53.2574V53.2574C18.3338 53.2574 15.1537 50.0772 15.1537 46.1543V46.1543Z" fill="#FBFBFB"/>
<path d="M35.0417 82.1431C35.0417 78.2202 38.2219 75.04 42.1448 75.04V75.04C46.0677 75.04 49.2479 78.2202 49.2479 82.1431V82.1431C49.2479 86.066 46.0677 89.2462 42.1448 89.2462V89.2462C38.2219 89.2462 35.0417 86.066 35.0417 82.1431V82.1431Z" fill="#FBFBFB"/>
<path d="M0 46.1543C0 42.2314 3.18015 39.0513 7.10306 39.0513V39.0513C11.026 39.0513 14.2061 42.2314 14.2061 46.1543V46.1543C14.2061 50.0772 11.026 53.2574 7.10306 53.2574V53.2574C3.18015 53.2574 0 50.0772 0 46.1543V46.1543Z" fill="#FBFBFB"/>
<path d="M259.572 75.8468V83.8516C259.258 84.2308 258.772 84.6424 258.115 85.0863C257.459 85.521 256.612 85.8956 255.577 86.21C254.541 86.5245 253.287 86.6817 251.817 86.6817C250.513 86.6817 249.324 86.469 248.251 86.0435C247.179 85.6088 246.254 84.9753 245.477 84.1429C244.709 83.3105 244.117 82.2932 243.701 81.0908C243.285 79.8792 243.077 78.4965 243.077 76.9427V75.6803C243.077 74.1265 243.276 72.7438 243.673 71.5322C244.08 70.3206 244.658 69.2986 245.407 68.4662C246.157 67.6338 247.049 67.0003 248.085 66.5656C249.121 66.1309 250.272 65.9136 251.539 65.9136C253.297 65.9136 254.739 66.2003 255.868 66.7737C256.996 67.3379 257.856 68.124 258.448 69.1321C259.049 70.131 259.419 71.2779 259.558 72.5727H255.521C255.419 71.8883 255.225 71.2917 254.938 70.7831C254.652 70.2744 254.24 69.8767 253.704 69.59C253.176 69.3033 252.492 69.1599 251.65 69.1599C250.957 69.1599 250.337 69.3033 249.791 69.59C249.255 69.8674 248.802 70.279 248.432 70.8247C248.062 71.3704 247.78 72.0455 247.586 72.8502C247.391 73.6548 247.294 74.5889 247.294 75.6525V76.9427C247.294 77.9971 247.396 78.9312 247.599 79.7451C247.803 80.5498 248.103 81.2296 248.501 81.7845C248.908 82.3302 249.408 82.7417 249.999 83.0192C250.591 83.2967 251.28 83.4354 252.067 83.4354C252.723 83.4354 253.269 83.3799 253.704 83.2689C254.148 83.1579 254.504 83.0238 254.772 82.8666C255.049 82.7001 255.262 82.5429 255.41 82.3949V78.8156H251.609V75.8468H259.572Z" fill="#FBFBFB"/>
<path d="M265.771 66.2049H273.304C274.848 66.2049 276.175 66.4361 277.285 66.8986C278.404 67.361 279.264 68.0454 279.866 68.9518C280.467 69.8582 280.767 70.9727 280.767 72.2952C280.767 73.3773 280.582 74.3068 280.212 75.0837C279.852 75.8514 279.338 76.4942 278.673 77.0121C278.016 77.5208 277.244 77.9277 276.356 78.2329L275.038 78.9266H268.49L268.462 75.6803H273.331C274.062 75.6803 274.668 75.5508 275.149 75.2918C275.63 75.0329 275.99 74.6722 276.231 74.2097C276.481 73.7473 276.605 73.2109 276.605 72.6004C276.605 71.953 276.485 71.3935 276.245 70.9218C276.004 70.4501 275.639 70.0894 275.149 69.8397C274.659 69.59 274.044 69.4651 273.304 69.4651H269.932V86.4042H265.771V66.2049ZM277.063 86.4042L272.457 77.4006L276.855 77.3728L281.517 86.21V86.4042H277.063Z" fill="#FBFBFB"/>
<path d="M303.406 75.8329V76.7901C303.406 78.3254 303.198 79.7035 302.781 80.9243C302.365 82.1452 301.778 83.1857 301.019 84.0458C300.261 84.8967 299.355 85.5487 298.3 86.0019C297.255 86.4551 296.094 86.6817 294.818 86.6817C293.551 86.6817 292.39 86.4551 291.336 86.0019C290.291 85.5487 289.384 84.8967 288.617 84.0458C287.849 83.1857 287.253 82.1452 286.827 80.9243C286.411 79.7035 286.203 78.3254 286.203 76.7901V75.8329C286.203 74.2883 286.411 72.9103 286.827 71.6987C287.243 70.4778 287.831 69.4374 288.589 68.5772C289.357 67.7171 290.263 67.0604 291.308 66.6072C292.363 66.154 293.523 65.9274 294.79 65.9274C296.067 65.9274 297.227 66.154 298.273 66.6072C299.327 67.0604 300.233 67.7171 300.992 68.5772C301.759 69.4374 302.351 70.4778 302.767 71.6987C303.193 72.9103 303.406 74.2883 303.406 75.8329ZM299.202 76.7901V75.8051C299.202 74.7323 299.105 73.7889 298.911 72.975C298.717 72.1611 298.43 71.4767 298.051 70.9218C297.671 70.3669 297.209 69.9507 296.663 69.6732C296.118 69.3865 295.493 69.2431 294.79 69.2431C294.087 69.2431 293.463 69.3865 292.918 69.6732C292.381 69.9507 291.923 70.3669 291.544 70.9218C291.174 71.4767 290.892 72.1611 290.698 72.975C290.504 73.7889 290.406 74.7323 290.406 75.8051V76.7901C290.406 77.8537 290.504 78.7971 290.698 79.6203C290.892 80.4342 291.179 81.1232 291.558 81.6874C291.937 82.2423 292.4 82.6631 292.945 82.9498C293.491 83.2365 294.115 83.3799 294.818 83.3799C295.521 83.3799 296.145 83.2365 296.691 82.9498C297.237 82.6631 297.695 82.2423 298.064 81.6874C298.434 81.1232 298.717 80.4342 298.911 79.6203C299.105 78.7971 299.202 77.8537 299.202 76.7901Z" fill="#FBFBFB"/>
<path d="M320.397 66.2049H324.546V79.5509C324.546 81.1047 324.213 82.4134 323.547 83.477C322.89 84.5406 321.979 85.3406 320.814 85.8771C319.658 86.4135 318.326 86.6817 316.818 86.6817C315.311 86.6817 313.97 86.4135 312.795 85.8771C311.63 85.3406 310.714 84.5406 310.048 83.477C309.391 82.4134 309.063 81.1047 309.063 79.5509V66.2049H313.225V79.5509C313.225 80.4573 313.368 81.1972 313.655 81.7706C313.942 82.344 314.353 82.7648 314.89 83.0331C315.436 83.3013 316.078 83.4354 316.818 83.4354C317.577 83.4354 318.219 83.3013 318.747 83.0331C319.283 82.7648 319.69 82.344 319.967 81.7706C320.254 81.1972 320.397 80.4573 320.397 79.5509V66.2049Z" fill="#FBFBFB"/>
<path d="M338.68 79.2041H333.533V75.9577H338.68C339.475 75.9577 340.122 75.8283 340.622 75.5693C341.121 75.3011 341.487 74.9311 341.718 74.4594C341.949 73.9878 342.065 73.456 342.065 72.864C342.065 72.2629 341.949 71.7033 341.718 71.1854C341.487 70.6674 341.121 70.2513 340.622 69.9368C340.122 69.6223 339.475 69.4651 338.68 69.4651H334.975V86.4042H330.813V66.2049H338.68C340.261 66.2049 341.616 66.4916 342.744 67.065C343.882 67.6292 344.751 68.4107 345.353 69.4096C345.954 70.4085 346.254 71.5507 346.254 72.8363C346.254 74.1404 345.954 75.2687 345.353 76.2213C344.751 77.174 343.882 77.9092 342.744 78.4272C341.616 78.9451 340.261 79.2041 338.68 79.2041Z" fill="#FBFBFB"/>
<path d="M127.855 0.220215H143.698C147.27 0.220215 149.993 0.497576 151.867 1.0523C154.386 1.80513 156.543 3.14241 158.339 5.06412C160.135 6.98584 161.502 9.3434 162.439 12.1368C163.376 14.9104 163.844 18.3378 163.844 22.419C163.844 26.0049 163.405 29.0955 162.527 31.6908C161.453 34.8606 159.92 37.4262 157.929 39.3875C156.426 40.8734 154.396 42.0323 151.838 42.8644C149.925 43.4786 147.368 43.7857 144.166 43.7857H127.855V0.220215ZM136.523 7.59009V36.4455H142.995C145.415 36.4455 147.163 36.3068 148.236 36.0295C149.642 35.6729 150.804 35.0686 151.721 34.2167C152.658 33.3648 153.419 31.9681 154.005 30.0266C154.591 28.0653 154.884 25.4006 154.884 22.0327C154.884 18.6647 154.591 16.0793 154.005 14.2765C153.419 12.4736 152.6 11.067 151.545 10.0566C150.491 9.04623 149.154 8.36273 147.534 8.00613C146.323 7.72877 143.951 7.59009 140.418 7.59009H136.523Z" fill="#FBFBFB"/>
<path d="M241.922 43.7857V7.59009H229.191V0.220215H263.286V7.59009H250.585V43.7857H241.922Z" fill="#FBFBFB"/>
<path d="M326.74 29.3404L334.977 28.5363C335.473 31.3124 336.474 33.3514 337.981 34.6533C339.506 35.9552 341.556 36.6061 344.13 36.6061C346.857 36.6061 348.907 36.0318 350.28 34.883C351.672 33.7152 352.368 32.3558 352.368 30.8051C352.368 29.8095 352.072 28.9671 351.481 28.2779C350.909 27.5695 349.898 26.9568 348.449 26.4399C347.458 26.0953 345.198 25.4826 341.67 24.6019C337.132 23.4724 333.947 22.0843 332.117 20.4378C329.543 18.1212 328.256 15.2972 328.256 11.9659C328.256 9.82165 328.856 7.82095 330.057 5.96385C331.278 4.08759 333.023 2.66126 335.292 1.68484C337.58 0.708424 340.335 0.220215 343.558 0.220215C348.821 0.220215 352.778 1.37851 355.428 3.69511C358.098 6.01171 359.499 9.1037 359.633 12.9711L351.166 13.3444C350.804 11.181 350.022 9.6302 348.821 8.69207C347.639 7.7348 345.856 7.25616 343.472 7.25616C341.012 7.25616 339.086 7.76352 337.694 8.77823C336.798 9.42917 336.35 10.3003 336.35 11.3916C336.35 12.3871 336.77 13.2391 337.609 13.9475C338.677 14.8473 341.27 15.7855 345.389 16.7619C349.507 17.7383 352.549 18.753 354.513 19.806C356.496 20.8399 358.041 22.2662 359.147 24.085C360.272 25.8847 360.834 28.1151 360.834 30.7763C360.834 33.1887 360.167 35.4478 358.832 37.5538C357.497 39.6598 355.609 41.2297 353.169 42.2636C350.728 43.2783 347.686 43.7857 344.044 43.7857C338.743 43.7857 334.672 42.5604 331.831 40.1097C328.99 37.64 327.293 34.0502 326.74 29.3404Z" fill="#FBFBFB"/>
<path d="M426.183 29.3404L434.42 28.5363C434.916 31.3124 435.917 33.3514 437.424 34.6533C438.949 35.9552 440.999 36.6061 443.573 36.6061C446.3 36.6061 448.35 36.0318 449.723 34.883C451.115 33.7152 451.811 32.3558 451.811 30.8051C451.811 29.8095 451.515 28.9671 450.924 28.2779C450.352 27.5695 449.341 26.9568 447.892 26.4399C446.901 26.0953 444.641 25.4826 441.113 24.6019C436.575 23.4724 433.39 22.0843 431.56 20.4378C428.986 18.1212 427.699 15.2972 427.699 11.9659C427.699 9.82165 428.299 7.82095 429.5 5.96385C430.721 4.08759 432.466 2.66126 434.735 1.68484C437.023 0.708424 439.778 0.220215 443.001 0.220215C448.264 0.220215 452.221 1.37851 454.871 3.69511C457.541 6.01171 458.942 9.1037 459.076 12.9711L450.609 13.3444C450.247 11.181 449.465 9.6302 448.264 8.69207C447.082 7.7348 445.299 7.25616 442.915 7.25616C440.455 7.25616 438.529 7.76352 437.137 8.77823C436.241 9.42917 435.793 10.3003 435.793 11.3916C435.793 12.3871 436.213 13.2391 437.052 13.9475C438.12 14.8473 440.713 15.7855 444.832 16.7619C448.95 17.7383 451.992 18.753 453.956 19.806C455.939 20.8399 457.484 22.2662 458.59 24.085C459.715 25.8847 460.277 28.1151 460.277 30.7763C460.277 33.1887 459.61 35.4478 458.275 37.5538C456.94 39.6598 455.052 41.2297 452.612 42.2636C450.171 43.2783 447.129 43.7857 443.487 43.7857C438.186 43.7857 434.115 42.5604 431.274 40.1097C428.433 37.64 426.736 34.0502 426.183 29.3404Z" fill="#FBFBFB"/>
<path d="M390.045 43.7857V25.4501L374.094 0.220215H384.401L394.649 17.4562L404.689 0.220215H414.818L398.808 25.5096V43.7857H390.045Z" fill="#FBFBFB"/>
<path d="M279.387 43.7857H268.969L288.384 0.220215H297.382L316.323 43.7857H306.379L292.173 12.5322L279.387 43.7857Z" fill="#FBFBFB"/>
<path d="M186.574 43.7857H176.156L195.571 0.220215H204.568L223.509 43.7857H213.565L199.359 12.5322L186.574 43.7857Z" fill="#FBFBFB"/>
<path d="M52.0887 13.9532C52.0887 10.0302 55.2689 6.8501 59.1918 6.8501V6.8501C63.1147 6.8501 66.2949 10.0302 66.2949 13.9532V13.9532C66.2949 17.8761 63.1147 21.0562 59.1918 21.0562V21.0562C55.2689 21.0562 52.0887 17.8761 52.0887 13.9532V13.9532Z" fill="#FBFBFB"/>
<path d="M53.9836 46.1543C53.9836 42.2314 57.1638 39.0513 61.0867 39.0513V39.0513C65.0096 39.0513 68.1898 42.2314 68.1898 46.1543V46.1543C68.1898 50.0772 65.0096 53.2574 61.0867 53.2574V53.2574C57.1638 53.2574 53.9836 50.0772 53.9836 46.1543V46.1543Z" fill="#FBFBFB"/>
<path d="M71.9777 46.1543C71.9777 42.2314 75.1578 39.0513 79.0807 39.0513V39.0513C83.0036 39.0513 86.1838 42.2314 86.1838 46.1543V46.1543C86.1838 50.0772 83.0036 53.2574 79.0807 53.2574V53.2574C75.1578 53.2574 71.9777 50.0772 71.9777 46.1543V46.1543Z" fill="#FBFBFB"/>
<path d="M15.1537 46.1543C15.1537 42.2314 18.3338 39.0513 22.2567 39.0513V39.0513C26.1797 39.0513 29.3598 42.2314 29.3598 46.1543V46.1543C29.3598 50.0772 26.1797 53.2574 22.2567 53.2574V53.2574C18.3338 53.2574 15.1537 50.0772 15.1537 46.1543V46.1543Z" fill="#FBFBFB"/>
<path d="M35.0417 82.1431C35.0417 78.2202 38.2219 75.04 42.1448 75.04V75.04C46.0677 75.04 49.2479 78.2202 49.2479 82.1431V82.1431C49.2479 86.066 46.0677 89.2462 42.1448 89.2462V89.2462C38.2219 89.2462 35.0417 86.066 35.0417 82.1431V82.1431Z" fill="#FBFBFB"/>
<path d="M0 46.1543C0 42.2314 3.18015 39.0513 7.10306 39.0513V39.0513C11.026 39.0513 14.2061 42.2314 14.2061 46.1543V46.1543C14.2061 50.0772 11.026 53.2574 7.10306 53.2574V53.2574C3.18015 53.2574 0 50.0772 0 46.1543V46.1543Z" fill="#FBFBFB"/>
<path d="M52.0889 13.9527C52.0889 10.0298 55.269 6.84961 59.1919 6.84961V6.84961C63.1148 6.84961 66.295 10.0298 66.295 13.9527V13.9527C66.295 17.8756 63.1148 21.0557 59.1919 21.0557V21.0557C55.269 21.0557 52.0889 17.8756 52.0889 13.9527V13.9527Z" fill="#FBFBFB"/>
<path d="M53.9836 46.1538C53.9836 42.2309 57.1638 39.0508 61.0867 39.0508V39.0508C65.0096 39.0508 68.1898 42.2309 68.1898 46.1538V46.1538C68.1898 50.0768 65.0096 53.2569 61.0867 53.2569V53.2569C57.1638 53.2569 53.9836 50.0768 53.9836 46.1538V46.1538Z" fill="#FBFBFB"/>
<path d="M71.9775 46.1538C71.9775 42.2309 75.1577 39.0508 79.0806 39.0508V39.0508C83.0035 39.0508 86.1837 42.2309 86.1837 46.1538V46.1538C86.1837 50.0768 83.0035 53.2569 79.0806 53.2569V53.2569C75.1577 53.2569 71.9775 50.0768 71.9775 46.1538V46.1538Z" fill="#FBFBFB"/>
<path d="M15.1538 46.1538C15.1538 42.2309 18.334 39.0508 22.2569 39.0508V39.0508C26.1798 39.0508 29.3599 42.2309 29.3599 46.1538V46.1538C29.3599 50.0768 26.1798 53.2569 22.2569 53.2569V53.2569C18.334 53.2569 15.1538 50.0768 15.1538 46.1538V46.1538Z" fill="#FBFBFB"/>
<path d="M35.0417 82.1426C35.0417 78.2197 38.2219 75.0396 42.1448 75.0396V75.0396C46.0677 75.0396 49.2479 78.2197 49.2479 82.1426V82.1426C49.2479 86.0655 46.0677 89.2457 42.1448 89.2457V89.2457C38.2219 89.2457 35.0417 86.0655 35.0417 82.1426V82.1426Z" fill="#FBFBFB"/>
<path d="M0 46.1538C0 42.2309 3.18015 39.0508 7.10306 39.0508V39.0508C11.026 39.0508 14.2061 42.2309 14.2061 46.1538V46.1538C14.2061 50.0768 11.026 53.2569 7.10306 53.2569V53.2569C3.18015 53.2569 0 50.0768 0 46.1538V46.1538Z" fill="#FBFBFB"/>
<path d="M258.495 75.8463V83.8511C258.181 84.2303 257.695 84.6419 257.039 85.0858C256.382 85.5205 255.536 85.8951 254.5 86.2095C253.464 86.524 252.211 86.6812 250.74 86.6812C249.436 86.6812 248.248 86.4685 247.175 86.0431C246.102 85.6084 245.177 84.9748 244.4 84.1424C243.632 83.31 243.04 82.2927 242.624 81.0903C242.208 79.8787 242 78.496 242 76.9423V75.6798C242 74.126 242.199 72.7433 242.597 71.5317C243.003 70.3201 243.582 69.2981 244.331 68.4657C245.08 67.6334 245.972 66.9998 247.008 66.5651C248.044 66.1304 249.196 65.9131 250.463 65.9131C252.22 65.9131 253.663 66.1998 254.791 66.7732C255.919 67.3374 256.78 68.1235 257.371 69.1317C257.973 70.1305 258.343 71.2774 258.481 72.5722H254.444C254.342 71.8878 254.148 71.2913 253.862 70.7826C253.575 70.2739 253.163 69.8762 252.627 69.5895C252.1 69.3028 251.415 69.1594 250.574 69.1594C249.88 69.1594 249.26 69.3028 248.715 69.5895C248.178 69.8669 247.725 70.2785 247.355 70.8242C246.985 71.3699 246.703 72.045 246.509 72.8497C246.315 73.6543 246.217 74.5884 246.217 75.6521V76.9423C246.217 77.9966 246.319 78.9307 246.523 79.7446C246.726 80.5493 247.027 81.2291 247.424 81.784C247.831 82.3297 248.331 82.7412 248.923 83.0187C249.515 83.2962 250.204 83.4349 250.99 83.4349C251.646 83.4349 252.192 83.3794 252.627 83.2684C253.071 83.1574 253.427 83.0233 253.695 82.8661C253.973 82.6996 254.185 82.5424 254.333 82.3944V78.8151H250.532V75.8463H258.495Z" fill="#FBFBFB"/>
<path d="M264.694 66.2044H272.227C273.771 66.2044 275.099 66.4356 276.208 66.8981C277.328 67.3605 278.188 68.0449 278.789 68.9513C279.39 69.8577 279.691 70.9722 279.691 72.2947C279.691 73.3769 279.506 74.3064 279.136 75.0833C278.775 75.8509 278.262 76.4937 277.596 77.0116C276.939 77.5203 276.167 77.9272 275.279 78.2325L273.961 78.9261H267.413L267.385 75.6798H272.255C272.985 75.6798 273.591 75.5503 274.072 75.2913C274.553 75.0324 274.914 74.6717 275.154 74.2092C275.404 73.7468 275.529 73.2104 275.529 72.6C275.529 71.9525 275.408 71.393 275.168 70.9213C274.928 70.4496 274.562 70.0889 274.072 69.8392C273.582 69.5895 272.967 69.4646 272.227 69.4646H268.856V86.4038H264.694V66.2044ZM275.986 86.4038L271.381 77.4001L275.778 77.3723L280.44 86.2095V86.4038H275.986Z" fill="#FBFBFB"/>
<path d="M302.329 75.8324V76.7896C302.329 78.3249 302.121 79.703 301.705 80.9239C301.288 82.1447 300.701 83.1852 299.943 84.0453C299.184 84.8962 298.278 85.5482 297.224 86.0014C296.178 86.4546 295.018 86.6812 293.741 86.6812C292.474 86.6812 291.314 86.4546 290.259 86.0014C289.214 85.5482 288.308 84.8962 287.54 84.0453C286.772 83.1852 286.176 82.1447 285.75 80.9239C285.334 79.703 285.126 78.3249 285.126 76.7896V75.8324C285.126 74.2879 285.334 72.9098 285.75 71.6982C286.167 70.4774 286.754 69.4369 287.512 68.5767C288.28 67.7166 289.186 67.0599 290.231 66.6067C291.286 66.1536 292.447 65.927 293.714 65.927C294.99 65.927 296.151 66.1536 297.196 66.6067C298.25 67.0599 299.157 67.7166 299.915 68.5767C300.683 69.4369 301.274 70.4774 301.691 71.6982C302.116 72.9098 302.329 74.2879 302.329 75.8324ZM298.125 76.7896V75.8047C298.125 74.7318 298.028 73.7884 297.834 72.9745C297.64 72.1606 297.353 71.4762 296.974 70.9213C296.595 70.3664 296.132 69.9502 295.586 69.6727C295.041 69.386 294.417 69.2426 293.714 69.2426C293.011 69.2426 292.386 69.386 291.841 69.6727C291.304 69.9502 290.847 70.3664 290.467 70.9213C290.097 71.4762 289.815 72.1606 289.621 72.9745C289.427 73.7884 289.33 74.7318 289.33 75.8047V76.7896C289.33 77.8533 289.427 78.7966 289.621 79.6198C289.815 80.4337 290.102 81.1227 290.481 81.6869C290.86 82.2418 291.323 82.6626 291.868 82.9493C292.414 83.236 293.038 83.3794 293.741 83.3794C294.444 83.3794 295.069 83.236 295.614 82.9493C296.16 82.6626 296.618 82.2418 296.988 81.6869C297.358 81.1227 297.64 80.4337 297.834 79.6198C298.028 78.7966 298.125 77.8533 298.125 76.7896Z" fill="#FBFBFB"/>
<path d="M319.321 66.2044H323.469V79.5504C323.469 81.1042 323.136 82.4129 322.47 83.4765C321.813 84.5401 320.902 85.3401 319.737 85.8766C318.581 86.413 317.249 86.6812 315.741 86.6812C314.234 86.6812 312.893 86.413 311.718 85.8766C310.553 85.3401 309.637 84.5401 308.971 83.4765C308.315 82.4129 307.986 81.1042 307.986 79.5504V66.2044H312.148V79.5504C312.148 80.4568 312.292 81.1967 312.578 81.7701C312.865 82.3435 313.277 82.7644 313.813 83.0326C314.359 83.3008 315.002 83.4349 315.741 83.4349C316.5 83.4349 317.143 83.3008 317.67 83.0326C318.206 82.7644 318.613 82.3435 318.891 81.7701C319.177 81.1967 319.321 80.4568 319.321 79.5504V66.2044Z" fill="#FBFBFB"/>
<path d="M337.603 79.2036H332.456V75.9573H337.603C338.398 75.9573 339.046 75.8278 339.545 75.5688C340.044 75.3006 340.41 74.9306 340.641 74.459C340.872 73.9873 340.988 73.4555 340.988 72.8635C340.988 72.2624 340.872 71.7028 340.641 71.1849C340.41 70.667 340.044 70.2508 339.545 69.9363C339.046 69.6218 338.398 69.4646 337.603 69.4646H333.899V86.4038H329.737V66.2044H337.603C339.184 66.2044 340.539 66.4911 341.668 67.0646C342.805 67.6287 343.675 68.4103 344.276 69.4091C344.877 70.408 345.178 71.5502 345.178 72.8358C345.178 74.1399 344.877 75.2682 344.276 76.2208C343.675 77.1735 342.805 77.9088 341.668 78.4267C340.539 78.9446 339.184 79.2036 337.603 79.2036Z" fill="#FBFBFB"/>
<path d="M128 0.219727H143.842C147.415 0.219727 150.138 0.497087 152.012 1.05181C154.53 1.80465 156.688 3.14192 158.484 5.06363C160.28 6.98535 161.646 9.34291 162.583 12.1363C163.52 14.9099 163.989 18.3373 163.989 22.4185C163.989 26.0044 163.55 29.095 162.671 31.6903C161.597 34.8601 160.065 37.4257 158.074 39.387C156.57 40.8729 154.54 42.0319 151.983 42.8639C150.07 43.4781 147.512 43.7852 144.311 43.7852H128V0.219727ZM136.668 7.5896V36.445H143.139C145.56 36.445 147.307 36.3063 148.381 36.029C149.787 35.6724 150.948 35.0681 151.866 34.2162C152.803 33.3643 153.564 31.9676 154.15 30.0261C154.735 28.0648 155.028 25.4001 155.028 22.0322C155.028 18.6642 154.735 16.0788 154.15 14.276C153.564 12.4731 152.744 11.0665 151.69 10.0561C150.636 9.04574 149.299 8.36225 147.678 8.00564C146.468 7.72828 144.096 7.5896 140.562 7.5896H136.668Z" fill="#FBFBFB"/>
<path d="M242.067 43.7852V7.5896H229.336V0.219727H263.431V7.5896H250.729V43.7852H242.067Z" fill="#FBFBFB"/>
<path d="M326.884 29.3399L335.122 28.5358C335.618 31.3119 336.619 33.3509 338.125 34.6528C339.651 35.9547 341.7 36.6056 344.275 36.6056C347.002 36.6056 349.051 36.0313 350.424 34.8825C351.816 33.7147 352.512 32.3553 352.512 30.8046C352.512 29.809 352.217 28.9666 351.626 28.2774C351.054 27.569 350.043 26.9563 348.594 26.4394C347.602 26.0948 345.343 25.4821 341.815 24.6014C337.277 23.4719 334.092 22.0838 332.261 20.4373C329.687 18.1207 328.4 15.2968 328.4 11.9655C328.4 9.82116 329.001 7.82047 330.202 5.96336C331.422 4.08711 333.167 2.66077 335.436 1.68435C337.725 0.707935 340.48 0.219727 343.703 0.219727C348.966 0.219727 352.922 1.37803 355.573 3.69462C358.242 6.01122 359.644 9.10321 359.778 12.9706L351.311 13.3439C350.949 11.1805 350.167 9.62971 348.966 8.69158C347.783 7.73431 346 7.25568 343.617 7.25568C341.157 7.25568 339.231 7.76303 337.839 8.77774C336.943 9.42868 336.495 10.2998 336.495 11.3911C336.495 12.3867 336.914 13.2386 337.753 13.947C338.821 14.8468 341.414 15.785 345.533 16.7614C349.652 17.7378 352.694 18.7525 354.658 19.8055C356.641 20.8394 358.185 22.2657 359.291 24.0845C360.416 25.8842 360.979 28.1146 360.979 30.7758C360.979 33.1882 360.311 35.4473 358.977 37.5533C357.642 39.6593 355.754 41.2293 353.313 42.2631C350.872 43.2778 347.831 43.7852 344.189 43.7852C338.888 43.7852 334.817 42.5599 331.975 40.1093C329.134 37.6395 327.437 34.0497 326.884 29.3399Z" fill="#FBFBFB"/>
<path d="M426.327 29.3399L434.565 28.5358C435.061 31.3119 436.062 33.3509 437.568 34.6528C439.094 35.9547 441.143 36.6056 443.718 36.6056C446.445 36.6056 448.494 36.0313 449.867 34.8825C451.259 33.7147 451.955 32.3553 451.955 30.8046C451.955 29.809 451.66 28.9666 451.069 28.2774C450.497 27.569 449.486 26.9563 448.037 26.4394C447.045 26.0948 444.786 25.4821 441.258 24.6014C436.72 23.4719 433.535 22.0838 431.704 20.4373C429.13 18.1207 427.843 15.2968 427.843 11.9655C427.843 9.82116 428.444 7.82047 429.645 5.96336C430.865 4.08711 432.61 2.66077 434.879 1.68435C437.168 0.707935 439.923 0.219727 443.146 0.219727C448.409 0.219727 452.365 1.37803 455.016 3.69462C457.685 6.01122 459.087 9.10321 459.221 12.9706L450.754 13.3439C450.392 11.1805 449.61 9.62971 448.409 8.69158C447.226 7.73431 445.443 7.25568 443.06 7.25568C440.6 7.25568 438.674 7.76303 437.282 8.77774C436.386 9.42868 435.938 10.2998 435.938 11.3911C435.938 12.3867 436.357 13.2386 437.196 13.947C438.264 14.8468 440.857 15.785 444.976 16.7614C449.095 17.7378 452.137 18.7525 454.101 19.8055C456.084 20.8394 457.628 22.2657 458.734 24.0845C459.859 25.8842 460.422 28.1146 460.422 30.7758C460.422 33.1882 459.754 35.4473 458.42 37.5533C457.085 39.6593 455.197 41.2293 452.756 42.2631C450.315 43.2778 447.274 43.7852 443.632 43.7852C438.331 43.7852 434.26 42.5599 431.418 40.1093C428.577 37.6395 426.88 34.0497 426.327 29.3399Z" fill="#FBFBFB"/>
<path d="M390.189 43.7852V25.4496L374.238 0.219727H384.546L394.794 17.4557L404.834 0.219727H414.963L398.952 25.5091V43.7852H390.189Z" fill="#FBFBFB"/>
<path d="M279.532 43.7852H269.114L288.529 0.219727H297.526L316.468 43.7852H306.523L292.317 12.5317L279.532 43.7852Z" fill="#FBFBFB"/>
<path d="M186.718 43.7852H176.3L195.715 0.219727H204.713L223.654 43.7852H213.71L199.504 12.5317L186.718 43.7852Z" fill="#FBFBFB"/>
<path d="M0 0H14.5C22.5081 0 29 6.49187 29 14.5V14.5C29 22.5081 22.5081 29 14.5 29H0V0Z" fill="#FBFBFB"/>
<path d="M52.0889 13.9527C52.0889 10.0298 55.269 6.84961 59.1919 6.84961V6.84961C63.1148 6.84961 66.295 10.0298 66.295 13.9527V13.9527C66.295 17.8756 63.1148 21.0557 59.1919 21.0557V21.0557C55.269 21.0557 52.0889 17.8756 52.0889 13.9527V13.9527Z" fill="#FBFBFB"/>
<path d="M53.9836 46.1538C53.9836 42.2309 57.1638 39.0508 61.0867 39.0508V39.0508C65.0096 39.0508 68.1898 42.2309 68.1898 46.1538V46.1538C68.1898 50.0768 65.0096 53.2569 61.0867 53.2569V53.2569C57.1638 53.2569 53.9836 50.0768 53.9836 46.1538V46.1538Z" fill="#FBFBFB"/>
<path d="M71.9775 46.1538C71.9775 42.2309 75.1577 39.0508 79.0806 39.0508V39.0508C83.0035 39.0508 86.1837 42.2309 86.1837 46.1538V46.1538C86.1837 50.0768 83.0035 53.2569 79.0806 53.2569V53.2569C75.1577 53.2569 71.9775 50.0768 71.9775 46.1538V46.1538Z" fill="#FBFBFB"/>
<path d="M15.1538 46.1538C15.1538 42.2309 18.334 39.0508 22.2569 39.0508V39.0508C26.1798 39.0508 29.3599 42.2309 29.3599 46.1538V46.1538C29.3599 50.0768 26.1798 53.2569 22.2569 53.2569V53.2569C18.334 53.2569 15.1538 50.0768 15.1538 46.1538V46.1538Z" fill="#FBFBFB"/>
<path d="M35.0417 82.1426C35.0417 78.2197 38.2219 75.0396 42.1448 75.0396V75.0396C46.0677 75.0396 49.2479 78.2197 49.2479 82.1426V82.1426C49.2479 86.0655 46.0677 89.2457 42.1448 89.2457V89.2457C38.2219 89.2457 35.0417 86.0655 35.0417 82.1426V82.1426Z" fill="#FBFBFB"/>
<path d="M0 46.1538C0 42.2309 3.18015 39.0508 7.10306 39.0508V39.0508C11.026 39.0508 14.2061 42.2309 14.2061 46.1538V46.1538C14.2061 50.0768 11.026 53.2569 7.10306 53.2569V53.2569C3.18015 53.2569 0 50.0768 0 46.1538V46.1538Z" fill="#FBFBFB"/>
<rect x="497" y="1.21973" width="4.13829" height="86.9041" fill="#FBFBFB"/>
<path d="M622.566 43.9997C622.566 66.9562 603.956 85.5661 581 85.5661C558.043 85.5661 539.433 66.9562 539.433 43.9997C539.433 21.0432 558.043 2.43333 581 2.43333C603.956 2.43333 622.566 21.0432 622.566 43.9997Z" stroke="#FBFBFB" stroke-width="2.86665"/>
<path d="M550.9 71.2333C554.722 67.8888 570.107 64.3533 601.066 76.9666L589.6 65.5L608.233 72.6666" stroke="#FBFBFB" stroke-width="2.86665" stroke-linecap="round"/>
<path d="M545.346 64.6037C549.168 62.394 557.852 55.3588 562.008 44.8955" stroke="#FBFBFB" stroke-width="2.86665"/>
<path d="M557.529 68.3661C564.517 63.3495 570.25 56.362 572.758 47.0454" stroke="#FBFBFB" stroke-width="2.86665"/>
<path d="M549.646 69.6203C553.468 67.4106 564.481 55.3588 568.637 44.8955" stroke="#FBFBFB" stroke-width="2.86665"/>
<path d="M576.937 41.4329C576.937 43.7408 575.066 45.6117 572.758 45.6117C570.45 45.6117 568.579 43.7408 568.579 41.4329C568.579 39.125 570.45 37.2541 572.758 37.2541C575.066 37.2541 576.937 39.125 576.937 41.4329Z" stroke="#FBFBFB" stroke-width="2.86665"/>
<path d="M592.678 28.939V36.1439L595.939 44.9942H593.891L594.422 46.7385L593.057 47.2694L592.678 51.7439L586.762 52.654L586.004 56.901L608.376 72.7741" stroke="#FBFBFB" stroke-width="2.86665"/>
<path d="M567.617 45.3444H553.082C555.02 45.7133 560.845 42.862 560.695 35.5145C560.557 28.7314 567.617 14.3339 588.243 20.9794" stroke="#FBFBFB" stroke-width="2.86665" stroke-linecap="round"/>
<path d="M577.584 39.9437C579.153 36.0676 585.087 28.2602 596.272 28.0389L595.442 20.564C588.197 20.933 573.348 24.6057 571.908 36.3447" stroke="#FBFBFB" stroke-width="2.86665" stroke-linecap="round"/>
<path d="M559.311 39.6675L539.654 38.9746" stroke="#FBFBFB" stroke-width="2.86665" stroke-linecap="round"/>
<path d="M559.474 30.948L544.222 26.1016" stroke="#FBFBFB" stroke-width="2.86665" stroke-linecap="round"/>
<path d="M563.212 24.1097L552.805 15.165" stroke="#FBFBFB" stroke-width="2.86665" stroke-linecap="round"/>
<path d="M569.882 20.5664L562.495 6.99805" stroke="#FBFBFB" stroke-width="2.86665" stroke-linecap="round"/>
<path d="M575.646 18.0724V3.53662" stroke="#FBFBFB" stroke-width="2.86665" stroke-linecap="round"/>
<path d="M583.121 19.0412L587.966 3.53662" stroke="#FBFBFB" stroke-width="2.86665" stroke-linecap="round"/>
<path d="M589.212 21.5327L599.318 7.55127" stroke="#FBFBFB" stroke-width="2.86665" stroke-linecap="round"/>
<path d="M555.02 75.5203C559.357 73.5824 574.123 72.0321 598.487 81.3348" stroke="#FBFBFB" stroke-width="2.86665" stroke-linecap="round"/>
<path d="M611.715 71.2329V36.9906L614.161 31.9366L609.14 24.1094L604.12 31.9366L605.587 36.9906V69.568" stroke="#FBFBFB" stroke-width="2.86665" stroke-linecap="round"/>
<path d="M734.257 73.4254C734.257 74.605 734.042 75.6395 733.611 76.529C733.181 77.4185 732.584 78.163 731.821 78.7624C731.078 79.3619 730.198 79.8163 729.18 80.1257C728.183 80.4157 727.107 80.5608 725.952 80.5608H722.519V86.6519H718V66.3481H726.393C727.625 66.3481 728.721 66.5221 729.679 66.8702C730.657 67.1989 731.479 67.6727 732.144 68.2914C732.829 68.9102 733.347 69.6547 733.699 70.5249C734.071 71.3757 734.257 72.3232 734.257 73.3674V73.4254ZM729.679 73.5124V73.4544C729.679 72.4489 729.347 71.6851 728.681 71.163C728.036 70.6409 727.146 70.3798 726.011 70.3798H722.519V76.587H726.099C727.234 76.587 728.114 76.297 728.74 75.7169C729.366 75.1174 729.679 74.3826 729.679 73.5124Z" fill="#FBFBFB"/>
<path d="M758.143 86.6519H753.653V73.3964L747.872 82.0691H747.755L742.032 73.4834V86.6519H737.601V66.3481H742.473L747.872 74.9337L753.271 66.3481H758.143V86.6519Z" fill="#FBFBFB"/>
<path d="M784 76.5C784 77.9503 783.726 79.3135 783.178 80.5898C782.631 81.8467 781.868 82.9586 780.889 83.9254C779.931 84.8729 778.777 85.6271 777.427 86.1878C776.097 86.7293 774.639 87 773.054 87C771.47 87 770.012 86.7293 768.682 86.1878C767.352 85.6271 766.198 84.8826 765.219 83.9544C764.261 83.0069 763.508 81.9047 762.96 80.6478C762.432 79.3715 762.168 78.0083 762.168 76.558V76.5C762.168 75.0497 762.441 73.6961 762.989 72.4392C763.537 71.163 764.29 70.0511 765.249 69.1036C766.227 68.1367 767.381 67.3826 768.711 66.8412C770.061 66.2804 771.529 66 773.113 66C774.698 66 776.155 66.2804 777.485 66.8412C778.816 67.3826 779.96 68.1271 780.919 69.0746C781.897 70.0028 782.65 71.105 783.178 72.3812C783.726 73.6381 784 74.9917 784 76.442V76.5ZM779.276 76.558V76.5C779.276 75.6298 779.119 74.808 778.806 74.0345C778.513 73.261 778.082 72.5843 777.515 72.0041C776.967 71.424 776.312 70.9696 775.549 70.6409C774.786 70.2928 773.954 70.1188 773.054 70.1188C772.135 70.1188 771.294 70.2831 770.531 70.6119C769.787 70.9406 769.142 71.395 768.594 71.9751C768.066 72.5552 767.645 73.232 767.332 74.0055C767.039 74.7597 766.892 75.5718 766.892 76.442V76.5C766.892 77.3702 767.039 78.192 767.332 78.9655C767.645 79.7389 768.076 80.4157 768.623 80.9959C769.191 81.576 769.846 82.0401 770.589 82.3881C771.352 82.7168 772.194 82.8812 773.113 82.8812C774.013 82.8812 774.844 82.7168 775.607 82.3881C776.37 82.0594 777.016 81.605 777.544 81.0249C778.092 80.4448 778.513 79.7776 778.806 79.0235C779.119 78.25 779.276 77.4282 779.276 76.558Z" fill="#FBFBFB"/>
<path d="M657.144 66L646 69L657.66 2H667.299L682.196 61.5876H672.557L663.023 25.9869L657.144 66Z" fill="#FBFBFB"/>
<path d="M844.581 64L855.726 66L842.066 2H832.427L819.53 58.9588H829.169L837.703 23.9869L844.581 64Z" fill="#FBFBFB"/>
<path d="M691.932 57.3823V17.775L682.292 17.7748V9.1864L711.21 9.18652V17.775L701.571 17.7748V56.0813L691.932 57.3823Z" fill="#FBFBFB"/>
<path d="M749.474 53.4721L759.436 53.7015V37.052V27.4128L770.505 54.5777L780.144 55.454L781.266 9.01074H771.43V28.2891L771.304 35.2994L759.436 9.01074H749.474V53.4721Z" fill="#FBFBFB"/>
<path fill-rule="evenodd" clip-rule="evenodd" d="M742.596 45.6086L727.208 46.2676L727.208 34.655L742.134 34.4572L741.908 26.7124L727.208 26.976L727.208 17.9278L741.833 17.7912L741.876 8.64253L718.788 8.63903L718.788 55.0467C718.788 55.0467 725.94 55.0438 730.825 54.8297C735.711 54.6155 742.704 55.0438 742.704 55.0438L742.596 45.6086Z" fill="#FBFBFB"/>
<path fill-rule="evenodd" clip-rule="evenodd" d="M812.651 45.6086L797.263 46.2676L797.263 34.655L812.19 34.4572L811.963 26.7124L797.263 26.976L797.263 17.9278L811.888 17.7912L811.931 8.64253L788.843 8.63903L788.843 55.0467C788.843 55.0467 795.995 55.0438 800.88 54.8297C805.766 54.6155 812.759 55.0438 812.759 55.0438L812.651 45.6086Z" fill="#FBFBFB"/>
</svg>
